# xmcd
#
# Track frame offsets: 
#        150
#        13504
#        27853
#        38925
#        52672
#        63637
#        73730
#        86488
#        98474
#        113095
#        126305
#        143074
#        158538
#
# Disc length: 2284 seconds
#
# Revision: 1
# Processed by: cddbd v1.5.2PL0 Copyright (c) Steve Scherf et al.
# Submitted via: ExactAudioCopy v0.90b4
#
DISCID=9f08ea0d
DTITLE=Marvin Gaye - Playlist Plus [CD2]
DYEAR=2008
DGENRE=Soul
TTITLE0=It Takes Two (w. Kim Weston)
TTITLE1=Your Unchanging Love
TTITLE2=Ain't No Mountain High Enough (w. Tammi Terrell)
TTITLE3=Your Precious Love (w. Tammi Terrell)
TTITLE4=You
TTITLE5=Ain't Nothing Like the Real Thing (w. Tammi Terrell)
TTITLE6=You're All I Need to Get By (w. Tammi Terrell)
TTITLE7=Chained
TTITLE8=I Heard It Through the Grapevine
TTITLE9=Too Busy Thinking About My Baby
TTITLE10=That's the Way Love Is
TTITLE11=Yesterday
TTITLE12=The End of Our Road
EXTD=
EXTT0=
EXTT1=
EXTT2=
EXTT3=
EXTT4=
EXTT5=
EXTT6=
EXTT7=
EXTT8=
EXTT9=
EXTT10=
EXTT11=
EXTT12=
PLAYORDER=
